# xmcd
#
# Track frame offsets: 
#        225
#        15913
#        29181
#        47862
#        67405
#        81868
#        93850
#        105984
#        121186
#        135142
#
# Disc length: 2030 seconds
#
# Revision: 0
# Processed by: cddbd v1.4PL0 Copyright (c) Steve Scherf et al.
# Submitted via: ExactAudioCopy v0.90b4
#
DISCID=7a07eb0a
DTITLE=Gord Bamford - God's Green Earth
DYEAR=2000
DGENRE=Country
TTITLE0=24 by 24
TTITLE1=God's Green Earth
TTITLE2=Where A Cowboy Likes To Roam
TTITLE3=Man Of The House
TTITLE4=Starting All Over Again
TTITLE5=Wish I Did What He Did
TTITLE6=Staate I'm In
TTITLE7=There's A Ring To It
TTITLE8=Classic Country Song
TTITLE9=Chevy Truck
EXTD=
EXTT0=
EXTT1=
EXTT2=
EXTT3=
EXTT4=
EXTT5=
EXTT6=
EXTT7=
EXTT8=
EXTT9=
PLAYORDER=
